<?xml version="1.0" encoding="UTF-8"?><svg id="Layer_4" xmlns="http://www.w3.org/2000/svg" viewBox="0 0 576 504.33"><path d="M95.05,163.37c-3.51,1.15-5.54,5.32-5.52,8.91s1.53,6.81,2.69,10.08,1.98,6.97.63,10.46c-1.59,4.12-5.8,6.84-9.91,8.41-4.11,1.57-8.45,2.37-12.35,4.51-6.51,3.56-11.08,10.89-11.24,18-.08,3.58.86,7.02.63,10.6-.57,8.77-7.73,16.14-13.95,22.96-6.22,6.82-12.39,15.67-10.29,23.9-.15-3.44.39-7.17,2.53-10.13s6.26-4.78,9.23-3.33c2.87,1.4,3.68,5.29,2.72,8.6s-3.27,6.17-5.56,8.86c-4.36,5.13-8.97,10.21-11.9,16.19s-3.94,13.18-.88,18.42c4.27,7.31,14.39,8.27,23.26,7.77,5.33-.3,11.98-.11,13.6,4.79,1.62,4.9-3.27,10.07-7.59,13.67,6.24,1.3,12.47,2.6,18.71,3.91,2.89.6,6.1,1.46,7.28,4.12s-2.03,7.01-4.51,5.54c2.92,1.15,6.73.23,9.18-2.23s3.38-6.28,2.26-9.23c-1.22-3.18-4.52-5.28-4.88-8.75-.41-4.02,3.45-7.81,7.4-9.34,3.94-1.53,8.15-1.6,12.16-2.85,11.49-3.59,19.25-18.04,15.39-28.68-1.46-4.03-4.29-7.47-4.86-11.81-.79-5.97,2.9-12.17,7.36-16.85s9.81-8.46,13.96-13.41c2.75-3.28,4.99-7.27,5.04-11.32s-2.69-8-6.7-8.14c-4.56-.17-8.36,4.1-11.83,7.53s-8.96,6.52-12.36,3.79c-.34,3.56-.68,7.12-1.02,10.68-.88,9.2-1.79,18.5-4.85,27.45-3.06,8.95-8.55,17.67-16.6,22.9-8.05,5.24-18.85,6.25-25.65.91-5.17-4.06-7.13-12.62-2.49-18.32,5.58-6.86,17.39-6.61,21.42-14.38,3.38-6.52-1.39-13.16-3.89-19.43-3.87-9.67-1.88-22.01,5-31.13s18.4-14.66,29.06-13.99c7.74.49,15.72,5.57,15.23,13.47,5.46.37,10.32-6.11,9.9-11.59s-4.57-9.6-9.23-12.09-9.97-3.77-14.68-6.16c-6.17-3.13-9.18-9.31-14.33-13.62-2.88-2.41-5.46-4.74-6.92-8.35-.46-1.14-2.76-10.61-.66-11.3Z"/><path d="M207.94,166.16c14.06,1.52,27.06.52,39.06-4.48,3-2,8,2,6,6-2,2-6,2-5,5,6,18-1,38-17,48,2-1,4-2,5-1,9,13,12,30,.56,42.11-3.83,4.45-7.81,8.99-13.03,11.63-2.54,1.29-5.34,2.11-7.68,3.75-2.33,1.64-4.18,4.46-3.55,7.24.77,3.37,4.82,5.03,8.26,4.63,3.44-.4,6.51-2.22,9.75-3.45,3.23-1.23,7.11-1.8,9.97.14.34,2.21.67,4.42,1.01,6.64,6.55-2.07,13.1-4.13,19.64-6.2,6.55-2.07,13.1-4.13,19.64-6.2,8.42-6.29,25.42,3.71,27.42-9.29-9,0-18,3-27,3,2-1,3-1,5-1-7,2-15,2-21-2-4-2-6-8-3-11,4-3,12-6,10-9-18-24-19-50-1-73,2-3-6-8-2-9,20-6,41-4,58-15-10-1-21-3-31-4,1-3,4-5,7-6-3-1-5-1-8-1-13,1-24,17-38,9,7-4,11-10,15-17-4-1-8,1-12,2-19,8-40,34-60.18,14.63-2.35,6.3,2.77,12.92,8.11,14.84Z"/><path d="M351.16,163.48c7.35,5.63,14.91,11.48,19.77,20.03s6.38,20.58,1.24,28.9c.97-8.02-3.16-15.94-8.72-20.77-5.56-4.83-12.38-7.18-19.03-9.43-5.58-1.89-11.15-3.78-16.73-5.66-3.87-1.31-7.93-2.63-11.86-1.64s-7.61,5.12-7.12,9.79c.45,4.29,4.13,7.21,7.75,8.05s7.38.21,11.07.52,7.68,1.87,9.46,5.66-.31,9.77-4,9.57c7.99-.06,15.98,1.95,23.24,5.84,16.91,9.06,29.2,28.55,32.42,49.96-3.11-7.14-6.23-14.29-9.34-21.43-1.38-3.16-3.45-6.82-6.48-6.55-3.67.32-4.91,6.41-3.21,10.23,1.7,3.82,5.03,6.22,7.43,9.48,6.26,8.48,5.11,22.37-1.29,30.7s-16.84,11.37-26.31,9.67c-5.84-1.05-11.37-3.69-17.06-5.57-5.68-1.89-11.81-3.01-17.46-1.01-5.65,2.01-10.64,7.87-10.69,14.78-3.84.74-6.2-5.62-4.57-9.75,1.64-4.13,5.35-6.44,8.53-9.07,3.18-2.63,6.28-6.64,5.63-11.12-.45-3.07-2.61-5.47-5.03-6.78-2.42-1.31-5.1-1.74-7.72-2.34-10.45-2.4-20.38-7.85-28.63-15.71-5.81-5.54-10.96-12.67-12.41-21.27-1.44-8.59,1.86-18.67,8.83-21.89-1.82,9.08-2.42,18.91.72,27.48s10.87,15.34,18.76,13.98c6.18-1.07,11.51-6.72,17.76-6.48,6.12.23,10.86,5.94,15.67,10.37,3.28,3.03,7.1,5.68,11.28,5.81s8.67-3.05,9.28-7.88c.51-4.01-1.74-7.95-4.67-10.12s-6.44-2.95-9.85-3.68c-6.35-1.36-12.7-2.72-19.06-4.09-4.41-.94-8.9-1.92-12.85-4.39s-7.35-6.72-8.02-11.89,2.13-11.04,6.55-11.94c-13.76-3.83-23.88-20.7-22.28-37.11.43-4.44,1.8-9.07,4.91-11.66,4-3.33,9.7-2.39,13.91-5.36,4.62-3.26,6.17-10.55,5.05-16.73s-4.33-11.5-7.46-16.64c4.72,11.74,14.29,20.64,25.14,23.38,6.26,1.58,12.78,1.2,19.05,2.72,10.99,2.66,20.78,11.43,25.82,23.14"/><path d="M440.93,192.28c7.35,5.64,14.91,11.5,19.77,19.77,4.87,8.26,6.38,19.63,1.24,27.21.97-7.48-3.16-15.12-8.72-19.93-5.56-4.81-12.38-7.33-19.03-9.77-5.58-2.04-11.15-4.08-16.73-6.12-3.87-1.42-7.93-2.85-11.86-2.11s-7.61,4.45-7.12,8.86c.45,4.05,4.13,6.97,7.75,7.94s7.38.56,11.07,1.02c3.69.46,7.68,2.13,9.46,5.77s-.31,9.16-4,8.8c7.99.32,15.98,2.59,23.24,6.6,16.91,9.32,29.2,28.22,32.42,48.48-3.11-6.86-6.23-13.72-9.34-20.57-1.38-3.04-3.45-6.57-6.48-6.46-3.67.13-4.91,5.78-3.21,9.45,1.7,3.67,5.03,6.08,7.43,9.26,6.26,8.26,5.11,21.26-1.29,28.77-6.4,7.52-16.84,9.88-26.31,7.83-5.84-1.27-11.37-4.01-17.06-6.05-5.68-2.04-11.81-3.4-17.46-1.78s-10.64,6.89-10.69,13.37c-3.84.51-6.2-5.57-4.57-9.37s5.35-5.79,8.53-8.11,6.28-5.93,5.63-10.18c-.45-2.9-2.61-5.27-5.03-6.61s-5.1-1.88-7.72-2.56c-10.45-2.75-20.38-8.35-28.63-16.13-5.81-5.48-10.96-12.43-12.41-20.57-1.44-8.14,1.86-17.45,8.83-20.14-1.82,8.44-2.42,17.65.72,25.85,3.14,8.2,10.87,14.93,18.76,14.03,6.18-.71,11.51-5.76,17.76-5.24,6.12.51,10.86,6.1,15.67,10.49,3.28,3,7.1,5.68,11.28,6s8.67-2.45,9.28-6.96c.51-3.74-1.74-7.55-4.67-9.73s-6.44-3.08-9.85-3.93c-6.35-1.58-12.7-3.17-19.06-4.75-4.41-1.1-8.9-2.23-12.85-4.74s-7.35-6.66-8.02-11.55,2.13-10.27,6.55-10.9c-13.76-4.26-23.88-20.59-22.28-35.93.43-4.15,1.8-8.43,4.91-10.72,4-2.94,9.7-1.78,13.91-4.37,4.62-2.84,6.17-9.62,5.05-15.47s-4.33-11.01-7.46-15.99c4.72,11.25,14.29,20.07,25.14,23.16,6.26,1.78,12.78,1.74,19.05,3.46,10.99,3.02,20.77,11.73,25.82,22.97"/><path d="M441.01,174.24c.34-2.47,1.3-4.79,2.82-6.6,4.24-5.03,11.61-6.51,18.6-5.71-3.01-1.03-6.36.08-7.85,2.59s-.98,6.22,1.18,8.69c4.75,5.42,13.21,2.78,19.51,6.05,5.42,2.81,8.05,9.57,7.82,15.37-.23,5.79-2.65,10.96-4.58,16.22-1.36,3.71-2.5,7.61-2.42,11.74s1.51,8.54,4.59,11.66c4.99,5.05,14.41,5.64,17.93.28,3.83-5.83,1.83-14.09,4.27-20.54,2.22-5.85,3.17-12.47,8.96-15.75,4.11-2.33,9.55-2.5,14.33-.44,2.52,1.09,4.83,2.73,7.32,3.92s5.36,1.9,7.69.96c2.76-1.12,4.07-4.33,3.97-7.47-.1-3.14-1.35-6.25-2.59-9.28,3.7,4,5.58,9.59,4.9,14.57-.9,6.53-5.63,10.59-11.69,12.1-4.63,1.15-12.77,1.21-12.12,7.8.66,6.63,6.35,9.81,9.59,15.4,3.29,5.68,4.89,12.25,4.2,18.36-1.1,9.84-8.07,18.08-17.42,20.59-3.26.88-7.11,1.33-8.81,4.19-1.84,3.11-.15,7.49,1.97,10.92,4.36,7.07,10.42,13,16.11,19.1,5.7,6.11,11.24,12.71,14.11,20.37,2.05,5.49,2.71,12.13.23,17.6-2.91,6.42-7.01,6.51-12.99,7.34-16.04,2.21-31.24,5.14-47.58,4.21-17.38-.99-34.7-5.21-50.04-13.44-13.23-7.1-24.87-17.16-33.82-29.22,5.36,9.59,14.5,16.64,24.44,21.31s20.74,7.19,31.48,9.53c12.68,2.76,25.51,5.32,38.48,5.28,7.28-.02,15.01-1.06,20.61-5.71,8.96-7.45,5.16-17.62-.9-25.27-7.59-9.58-19.42-11.19-28.34-18.55-8.44-6.96-2.23-15.84,3.77-20.1,2.58-1.83,5.24-3.77,6.61-6.67,3.06-6.44-1.44-15.09-7.49-20.24s-13.48-8.13-19.9-12.75c-7.12-5.13-17.89-16.22-17.17-25.27.61-7.59,11.51-11.8,8.44-20.16-2.03-5.51-9.38-6.67-13.9-10.6-3.6-3.13-4.95-7.98-4.34-12.38Z"/><path d="M218.76,260.8c-6.06-2.46-11.76-8.76-9.59-14.94,1.3-3.7,4.95-5.95,8.34-7.9,5.68-3.27,11.35-6.54,17.03-9.8-5.91.77-11.82,1.53-17.73,2.3-5.04.65-11.46.61-13.65-3.98-1.62-3.4.29-7.6,3.23-9.95s6.68-3.38,10.2-4.74c10.62-4.08,19.88-11.59,26.07-21.14,2.67-4.12,4.56-10.13.99-13.51-1.68-1.59-4.09-2.04-6.37-2.43-7.75-1.33-16.02-2-23.6-4.07-6.13-1.67-11.08-3.4-17.68-3.78-7.6-.44-15.24-.21-22.81.66-3.65.42-7.29.99-10.89,1.71-3.27.65-7.45,2.62-10.71,2.62-6.62,1.92-13.27,4.38-20.16,4.14-6.89-.23-14.25-4-16.15-10.63-2.44,3.75-2.73,8.79-.75,12.79,1.98,4,6.17,6.82,10.63,7.15,3.89.29,7.66-1.17,11.36-2.39,3.7-1.21,7.74-2.2,11.44-.97s6.62,5.49,5.06,9.06c-2.22,5.08-10.35,4.2-13.78,8.56-3.36,4.25-.18,10.65,4.04,14.04s9.61,5.69,12.34,10.37c3.24,5.55,1.62,12.78-1.71,18.28-3.33,5.5-8.16,9.93-11.86,15.19-3.7,5.26-6.28,11.99-4.24,18.09,1.12,3.34,3.55,6.25,3.96,9.75.72,6.12-4.74,10.92-8.69,15.65-2.84,3.41-4.77,7.01-6.1,11.2-1.3,4.1-3.8,7.42-5.4,11.41-3.61,8.99-3.39,19.47.3,28.4,5.3,12.84,16.9,22.42,29.89,27.34-9.97-4.61-16.81-15.29-16.84-26.28-.03-10.87,7.04-24.73,19.08-25.08,5.35-.16,13.59,2.64,13.35-4.99-.11-3.42-.93-4.84,1.51-7.61,1.53-1.73,4.63-2.83,4.35-5.63-.28-2.77-4.04-3.6-6.74-2.92s-5.49,2.14-8.12,1.22c-4.27-1.49-4.24-7.84-1.74-11.6,2.5-3.76,6.53-6.47,8.38-10.59,2.06-4.61.94-10.02-.94-14.7-1.89-4.68-4.52-9.12-5.54-14.06s.01-10.78,4.15-13.68c3.64-2.55,8.5-2.14,12.91-1.63,2.54.3,5.08.59,7.62.89,2.95.34,6,.72,8.53,2.27,5.62,3.42,6.66,11.1,6.36,17.67-.49,10.47-2.89,20.86-7.06,30.48-1.35,3.12-2.91,6.23-3.35,9.6-.44,3.37.47,7.17,3.21,9.18,3.54,2.59,8.56,1.32,12.47-.68,3.91-2,7.75-4.7,12.14-4.73,4.4-.03,8.29,2.62,12.31,4.41,4.02,1.79,9.3,2.54,12.35-.62,2.25-2.33,2.43-5.91,2.47-9.15.05-3.94.1-7.89.16-11.83,0-.56.01-1.13.02-1.69.08-6.3-.05-13.22-4.18-17.98-4.81-5.54-13.08-6-19.88-8.76ZM191.84,203.4c-5.83-.46-12.17-.33-16.86,3.17-2.17,1.62-3.83,3.87-6.14,5.27-2.31,1.4-5.75,1.63-7.36-.54-1.68-2.27-.29-5.61,1.82-7.49,2.11-1.88,4.85-2.99,6.79-5.03,2.43-2.55,3.33-6.5,2.2-9.85-1.07-3.18-4.63-5.45.38-6.89,3.85-1.11,9.44-.13,13.46-.17,4.55-.04,9.09-.09,13.64-.13,3.45-.03,6.97-.06,10.26.98,3.29,1.03,6.38,3.32,7.49,6.58,1.87,5.54-2.77,11.52-8.28,13.47-5.51,1.95-11.56,1.08-17.39.62Z"/></svg>